<?xml version="1.0" encoding="utf-8"?>
<svg width="13px" height="13px" viewBox="0 0 13 13" version="1.1" xmlns:xlink="http://www.w3.org/1999/xlink" xmlns="http://www.w3.org/2000/svg">
  <desc>Created with Lunacy</desc>
  <path style="fill: #d2d5d6;" d="M13 9.1L13 7.8L7.52632 4.55L7.52632 0.975C7.52632 0.4355 7.06789 0 6.5 0C5.93211 0 5.47368 0.4355 5.47368 0.975L5.47368 4.55L0 7.8L0 9.1L5.47368 7.475L5.47368 11.05L4.10526 12.025L4.10526 13L6.5 12.35L8.89474 13L8.89474 12.025L7.52632 11.05L7.52632 7.475L13 9.1L13 7.8L7.52632 4.55L7.52632 0.975C7.52632 0.4355 7.06789 0 6.5 0C5.93211 0 5.47368 0.4355 5.47368 0.975L5.47368 4.55L0 7.8L0 9.1L5.47368 7.475L5.47368 11.05L4.10526 12.025L4.10526 13L6.5 12.35L8.89474 13L8.89474 12.025L7.52632 11.05L7.52632 7.475L13 9.1Z" transform="matrix(1.192488E-08 1 -1 1.192488E-08 13 0)" id="Path" fill="none" stroke="none" />
</svg>