<?xml version="1.0" encoding="utf-8"?>
<svg width="64px" height="65px" viewBox="0 0 64 65" version="1.1" xmlns:xlink="http://www.w3.org/1999/xlink" xmlns="http://www.w3.org/2000/svg">
  <desc>Created with Lunacy</desc>
  <defs>
    <filter filterUnits="userSpaceOnUse" color-interpolation-filters="sRGB" id="filter_1">
      <feFlood flood-opacity="0" result="BackgroundImageFix" />
      <feColorMatrix in="SourceAlpha" type="matrix" values="0 0 0 0 0 0 0 0 0 0 0 0 0 0 0 0 0 0 127 0" />
      <feOffset dx="0" dy="8" />
      <feGaussianBlur stdDeviation="5.5" />
      <feColorMatrix type="matrix" values="0 0 0 0 0.2156863 0 0 0 0 0.4078431 0 0 0 0 0.5568628 0 0 0 0.2509804 0" />
      <feBlend mode="normal" in2="BackgroundImageFix" result="effect0_dropShadow" />
      <feBlend mode="normal" in="SourceGraphic" in2="effect0_dropShadow" result="shape" />
    </filter>
    <filter filterUnits="userSpaceOnUse" color-interpolation-filters="sRGB" id="filter_2">
      <feFlood flood-opacity="0" result="BackgroundImageFix" />
      <feColorMatrix in="SourceAlpha" type="matrix" values="0 0 0 0 0 0 0 0 0 0 0 0 0 0 0 0 0 0 127 0" />
      <feOffset dx="0" dy="1" />
      <feGaussianBlur stdDeviation="5.5" />
      <feColorMatrix type="matrix" values="0 0 0 0 0.2156863 0 0 0 0 0.4078431 0 0 0 0 0.5568628 0 0 0 0.2980392 0" />
      <feBlend mode="normal" in2="BackgroundImageFix" result="effect0_dropShadow" />
      <feBlend mode="normal" in="SourceGraphic" in2="effect0_dropShadow" result="shape" />
    </filter>
    <path d="M30 60C46.5685 60 60 46.5685 60 30C60 13.4315 46.5685 0 30 0C13.4315 0 0 13.4315 0 30C0 46.5685 13.4315 60 30 60C46.5685 60 60 46.5685 60 30C60 13.4315 46.5685 0 30 0C13.4315 0 0 13.4315 0 30C0 46.5685 13.4315 60 30 60Z" id="path_1" />
    <path d="M16.5644 2.5794C15.5068 3.81111 17.2327 0 18.779 0C20.3254 0 22.0495 3.81111 22.0495 3.81111L22.0495 11.1769L37.0495 18.8776Q37.1089 18.9081 37.1661 18.9494Q37.2233 18.9908 37.2766 19.0417Q37.3298 19.0926 37.3773 19.1514Q37.4249 19.2102 37.4652 19.275Q37.5054 19.3397 37.5371 19.4084Q37.5688 19.477 37.5909 19.5473Q37.613 19.6176 37.6248 19.6872Q37.6366 19.7568 37.6376 19.8235L37.6512 20.6729Q37.6523 20.7396 37.6442 20.8116Q37.6361 20.8836 37.6191 20.9586Q37.6021 21.0336 37.5768 21.1091Q37.5514 21.1847 37.5185 21.2583Q37.4857 21.3319 37.4463 21.4012Q37.407 21.4705 37.3625 21.5332Q37.318 21.5959 37.2698 21.65Q37.2215 21.7041 37.1712 21.7478L36.9694 21.9228Q36.9191 21.9665 36.8586 22.0079Q36.7981 22.0493 36.7295 22.087Q36.6609 22.1248 36.5863 22.1576Q36.5118 22.1905 36.4338 22.2173Q36.3558 22.2442 36.2769 22.2643Q36.198 22.2843 36.1207 22.2968Q36.0434 22.3094 35.9702 22.314Q35.8971 22.3187 35.8304 22.3153L22.0495 21.612L22.0495 28.0543Q22.0495 28.4405 21.9714 28.9046L25.6907 31.8488Q25.743 31.8902 25.7871 31.9404Q25.8311 31.9905 25.8654 32.0477Q25.8997 32.105 25.9232 32.1674Q25.9467 32.2299 25.9586 32.2956Q25.9705 32.3613 25.9704 32.428Q25.9704 32.4948 25.9583 32.5604Q25.9463 32.6261 25.9227 32.6885Q25.899 32.7509 25.8646 32.808L25.7697 32.9654Q25.7352 33.0226 25.6901 33.0762Q25.645 33.1298 25.5907 33.1782Q25.5363 33.2267 25.4746 33.2683Q25.4128 33.3099 25.3456 33.3433Q25.2785 33.3768 25.208 33.401Q25.1376 33.4252 25.0662 33.4393Q24.9949 33.4535 24.9249 33.4572Q24.8549 33.4608 24.7885 33.4539L20.6398 33.0193C20.1223 34.032 19.4115 35.0452 18.7681 35.0452C18.149 35.0452 17.4713 34.1074 16.8948 33.0239L12.7904 33.4539Q12.7241 33.4608 12.6541 33.4572Q12.5841 33.4535 12.5127 33.4393Q12.4414 33.4252 12.3709 33.401Q12.3005 33.3768 12.2333 33.3433Q12.1661 33.3099 12.1044 33.2683Q12.0426 33.2267 11.9883 33.1782Q11.934 33.1298 11.8889 33.0762Q11.8437 33.0226 11.8093 32.9654L11.7144 32.808Q11.6799 32.7509 11.6563 32.6885Q11.6327 32.6261 11.6206 32.5604Q11.6086 32.4948 11.6085 32.428Q11.6084 32.3613 11.6204 32.2956Q11.6323 32.2299 11.6558 32.1674Q11.6792 32.105 11.7136 32.0477Q11.7479 31.9905 11.7919 31.9404Q11.8359 31.8902 11.8882 31.8488L15.5068 28.9843L15.5068 21.6168L1.82079 22.3153Q1.75418 22.3187 1.68103 22.314Q1.60789 22.3094 1.53059 22.2968Q1.45329 22.2843 1.37436 22.2642Q1.29543 22.2442 1.21743 22.2173Q1.13943 22.1905 1.06491 22.1576Q0.99039 22.1248 0.921769 22.087Q0.853149 22.0493 0.792665 22.0079Q0.73218 21.9665 0.6818 21.9228L0.480073 21.7478Q0.429693 21.7041 0.381467 21.65Q0.333241 21.5959 0.28874 21.5332Q0.244239 21.4704 0.20491 21.4012Q0.165582 21.3319 0.132707 21.2583Q0.0998329 21.1847 0.0744822 21.1091Q0.0491316 21.0336 0.0321303 20.9586Q0.0151289 20.8836 0.00703046 20.8116Q-0.00106802 20.7396 0 20.6729L0.0136052 19.8235Q0.0146734 19.7568 0.0264475 19.6872Q0.0382216 19.6176 0.0603185 19.5473Q0.0824153 19.477 0.114115 19.4084Q0.145815 19.3397 0.186087 19.275Q0.226358 19.2102 0.273889 19.1514Q0.32142 19.0926 0.374664 19.0417Q0.427908 18.9908 0.48513 18.9494Q0.542353 18.9081 0.601692 18.8776L15.5068 11.2257L15.5068 5.43453Q15.5068 5.26777 15.5265 5.08459Q15.5462 4.90142 15.5849 4.70778Q15.6236 4.51413 15.6801 4.31634Q15.7365 4.11854 15.809 3.92303Q15.8814 3.72751 15.9674 3.54065Q16.0534 3.35378 16.1502 3.18165Q16.2469 3.00952 16.3513 2.85772Q16.4557 2.70592 16.5644 2.5794Z" transform="translate(0.8607696 -6.394885E-14)" id="path_2" />
    <clipPath id="mask_1">
      <use xlink:href="#path_1" />
    </clipPath>
    <clipPath id="mask_2">
      <use xlink:href="#path_2" />
    </clipPath>
  </defs>
  <g id="Logo" transform="translate(1.875 1.875)">
    <g id="Group-3" transform="translate(0 0.1408451)">
      <g filter="url(#filter_1)">
        <path d="M22.125 44.25C34.3443 44.25 44.25 34.3443 44.25 22.125C44.25 9.9057 34.3443 0 22.125 0C9.9057 0 0 9.9057 0 22.125C0 34.3443 9.9057 44.25 22.125 44.25C34.3443 44.25 44.25 34.3443 44.25 22.125C44.25 9.9057 34.3443 0 22.125 0C9.9057 0 0 9.9057 0 22.125C0 34.3443 9.9057 44.25 22.125 44.25Z" transform="translate(8.25 15.75)" id="Oval" fill="none" stroke="none" />
      </g>
      <g filter="url(#filter_2)">
        <g id="Oval">
          <use stroke="none" fill="#2196F3" xlink:href="#path_1" />
          <g clip-path="url(#mask_1)">
            <use xlink:href="#path_1" fill="none" stroke="#42A5F5" stroke-width="7.5" stroke-linecap="round" stroke-linejoin="round" />
          </g>
        </g>
      </g>
      <g clip-path="url(#mask_1)">
        <g id="Group-2" transform="translate(2.25 4.5)">
          <path d="M0.463983 1.875L54.286 1.875L0.463983 1.875L54.286 1.875" transform="translate(0 16.5)" id="Line" fill="none" stroke="#42A5F5" stroke-width="3.75" stroke-linecap="round" stroke-linejoin="round" />
          <path d="M0.463983 1.875L54.286 1.875L0.463983 1.875L54.286 1.875" transform="translate(0 32.25)" id="Line" fill="none" stroke="#42A5F5" stroke-width="3.75" stroke-linecap="round" stroke-linejoin="round" />
          <path d="M9.75 0C9.75 0 -0.212242 11.5775 0.00345267 26.25C0.219148 40.9225 9.75 51 9.75 51L9.75 0C9.75 0 -0.212242 11.5775 0.00345267 26.25C0.219148 40.9225 9.75 51 9.75 51" transform="translate(17.25 0)" id="Path-2" fill="none" stroke="#42A5F5" stroke-width="3.75" stroke-linecap="round" stroke-linejoin="round" />
          <path d="M9.75 0C9.75 0 -0.212242 11.5775 0.00345267 26.25C0.219148 40.9225 9.75 51 9.75 51L9.75 0C9.75 0 -0.212242 11.5775 0.00345267 26.25C0.219148 40.9225 9.75 51 9.75 51" transform="matrix(-1 0 0 1 37.5 0)" id="Path-2" fill="none" stroke="#42A5F5" stroke-width="3.75" stroke-linecap="round" stroke-linejoin="round" />
        </g>
      </g>
    </g>
    <g id="Group-7" transform="translate(3.460597 2.077465)">
      <g id="Plane-Icon" transform="matrix(0.4999999 0.8660254 -0.8660254 0.4999999 32.15418 0.8356838)">
        <path d="M16.5644 2.5794C15.5068 3.81111 17.2327 0 18.779 0C20.3254 0 22.0495 3.81111 22.0495 3.81111L22.0495 11.1769L37.0495 18.8776Q37.1089 18.9081 37.1661 18.9494Q37.2233 18.9908 37.2766 19.0417Q37.3298 19.0926 37.3773 19.1514Q37.4249 19.2102 37.4652 19.275Q37.5054 19.3397 37.5371 19.4084Q37.5688 19.477 37.5909 19.5473Q37.613 19.6176 37.6248 19.6872Q37.6366 19.7568 37.6376 19.8235L37.6512 20.6729Q37.6523 20.7396 37.6442 20.8116Q37.6361 20.8836 37.6191 20.9586Q37.6021 21.0336 37.5768 21.1091Q37.5514 21.1847 37.5185 21.2583Q37.4857 21.3319 37.4463 21.4012Q37.407 21.4705 37.3625 21.5332Q37.318 21.5959 37.2698 21.65Q37.2215 21.7041 37.1712 21.7478L36.9694 21.9228Q36.9191 21.9665 36.8586 22.0079Q36.7981 22.0493 36.7295 22.087Q36.6609 22.1248 36.5863 22.1576Q36.5118 22.1905 36.4338 22.2173Q36.3558 22.2442 36.2769 22.2643Q36.198 22.2843 36.1207 22.2968Q36.0434 22.3094 35.9702 22.314Q35.8971 22.3187 35.8304 22.3153L22.0495 21.612L22.0495 28.0543Q22.0495 28.4405 21.9714 28.9046L25.6907 31.8488Q25.743 31.8902 25.7871 31.9404Q25.8311 31.9905 25.8654 32.0477Q25.8997 32.105 25.9232 32.1674Q25.9467 32.2299 25.9586 32.2956Q25.9705 32.3613 25.9704 32.428Q25.9704 32.4948 25.9583 32.5604Q25.9463 32.6261 25.9227 32.6885Q25.899 32.7509 25.8646 32.808L25.7697 32.9654Q25.7352 33.0226 25.6901 33.0762Q25.645 33.1298 25.5907 33.1782Q25.5363 33.2267 25.4746 33.2683Q25.4128 33.3099 25.3456 33.3433Q25.2785 33.3768 25.208 33.401Q25.1376 33.4252 25.0662 33.4393Q24.9949 33.4535 24.9249 33.4572Q24.8549 33.4608 24.7885 33.4539L20.6398 33.0193C20.1223 34.032 19.4115 35.0452 18.7681 35.0452C18.149 35.0452 17.4713 34.1074 16.8948 33.0239L12.7904 33.4539Q12.7241 33.4608 12.6541 33.4572Q12.5841 33.4535 12.5127 33.4393Q12.4414 33.4252 12.3709 33.401Q12.3005 33.3768 12.2333 33.3433Q12.1661 33.3099 12.1044 33.2683Q12.0426 33.2267 11.9883 33.1782Q11.934 33.1298 11.8889 33.0762Q11.8437 33.0226 11.8093 32.9654L11.7144 32.808Q11.6799 32.7509 11.6563 32.6885Q11.6327 32.6261 11.6206 32.5604Q11.6086 32.4948 11.6085 32.428Q11.6084 32.3613 11.6204 32.2956Q11.6323 32.2299 11.6558 32.1674Q11.6792 32.105 11.7136 32.0477Q11.7479 31.9905 11.7919 31.9404Q11.8359 31.8902 11.8882 31.8488L15.5068 28.9843L15.5068 21.6168L1.82079 22.3153Q1.75418 22.3187 1.68103 22.314Q1.60789 22.3094 1.53059 22.2968Q1.45329 22.2843 1.37436 22.2642Q1.29543 22.2442 1.21743 22.2173Q1.13943 22.1905 1.06491 22.1576Q0.99039 22.1248 0.921769 22.087Q0.853149 22.0493 0.792665 22.0079Q0.73218 21.9665 0.6818 21.9228L0.480073 21.7478Q0.429693 21.7041 0.381467 21.65Q0.333241 21.5959 0.28874 21.5332Q0.244239 21.4704 0.20491 21.4012Q0.165582 21.3319 0.132707 21.2583Q0.0998329 21.1847 0.0744822 21.1091Q0.0491316 21.0336 0.0321303 20.9586Q0.0151289 20.8836 0.00703046 20.8116Q-0.00106802 20.7396 0 20.6729L0.0136052 19.8235Q0.0146734 19.7568 0.0264475 19.6872Q0.0382216 19.6176 0.0603185 19.5473Q0.0824153 19.477 0.114115 19.4084Q0.145815 19.3397 0.186087 19.275Q0.226358 19.2102 0.273889 19.1514Q0.32142 19.0926 0.374664 19.0417Q0.427908 18.9908 0.48513 18.9494Q0.542353 18.9081 0.601692 18.8776L15.5068 11.2257L15.5068 5.43453Q15.5068 5.26777 15.5265 5.08459Q15.5462 4.90142 15.5849 4.70778Q15.6236 4.51413 15.6801 4.31634Q15.7365 4.11854 15.809 3.92303Q15.8814 3.72751 15.9674 3.54065Q16.0534 3.35378 16.1502 3.18165Q16.2469 3.00952 16.3513 2.85772Q16.4557 2.70592 16.5644 2.5794Z" transform="translate(0.8607696 -6.394885E-14)" id="Combined-Shape" fill="#FFFFFF" fill-rule="evenodd" stroke="none" />
        <g clip-path="url(#mask_2)">
          <path d="M0 0L1.30853 0L1.30853 12.4084L0 12.4084L0 0L1.30853 0L1.30853 12.4084L0 12.4084L0 0Z" transform="translate(15.05905 9.940031)" id="Rectangle-7" fill="#EBECF2" stroke="none" />
          <path d="M15.498 7.95633L0 0L0 10.6653L14.2789 11.394Q14.3456 11.3974 14.4187 11.3927Q14.4919 11.3881 14.5692 11.3755Q14.6464 11.363 14.7254 11.343Q14.8043 11.3229 14.8823 11.296Q14.9603 11.2692 15.0348 11.2363Q15.1094 11.2035 15.178 11.1658Q15.2466 11.128 15.3071 11.0866Q15.3676 11.0452 15.4179 11.0015L15.6197 10.8265Q15.67 10.7828 15.7183 10.7287Q15.7665 10.6746 15.811 10.6119Q15.8555 10.5492 15.8948 10.4799Q15.9342 10.4106 15.967 10.337Q15.9999 10.2634 16.0253 10.1878Q16.0506 10.1123 16.0676 10.0373Q16.0846 9.96233 16.0927 9.89032Q16.1008 9.8183 16.0997 9.75161L16.0861 8.90218Q16.0851 8.83549 16.0733 8.76587Q16.0615 8.69626 16.0394 8.62599Q16.0173 8.55572 15.9856 8.48708Q15.9539 8.41844 15.9137 8.35367Q15.8734 8.2889 15.8259 8.23011Q15.7783 8.17131 15.7251 8.12041Q15.6718 8.0695 15.6146 8.02815Q15.5574 7.98679 15.498 7.95633L0 0L0 10.6653L14.2789 11.394Q14.3456 11.3974 14.4187 11.3927Q14.4919 11.3881 14.5692 11.3755Q14.6464 11.363 14.7254 11.343Q14.8043 11.3229 14.8823 11.296Q14.9603 11.2692 15.0348 11.2363Q15.1094 11.2035 15.178 11.1658Q15.2466 11.128 15.3071 11.0866Q15.3676 11.0452 15.4179 11.0015L15.6197 10.8265Q15.67 10.7828 15.7183 10.7287Q15.7665 10.6746 15.811 10.6119Q15.8555 10.5492 15.8948 10.4799Q15.9342 10.4106 15.967 10.337Q15.9999 10.2634 16.0253 10.1878Q16.0506 10.1123 16.0676 10.0373Q16.0846 9.96233 16.0927 9.89032Q16.1008 9.8183 16.0997 9.75161L16.0861 8.90218Q16.0851 8.83549 16.0733 8.76587Q16.0615 8.69626 16.0394 8.62599Q16.0173 8.55572 15.9856 8.48708Q15.9539 8.41844 15.9137 8.35367Q15.8734 8.2889 15.8259 8.23011Q15.7783 8.17131 15.7251 8.12041Q15.6718 8.0695 15.6146 8.02815Q15.5574 7.98679 15.498 7.95633Z" transform="translate(22.41227 10.9213)" id="Rectangle-5" fill="#DEE1E3" stroke="none" />
          <path d="M-0.0453553 4.12291L-0.0453553 4.25315L4.15705 4.69336Q4.22339 4.70031 4.29338 4.69665Q4.36338 4.69298 4.43475 4.67881Q4.50612 4.66465 4.57654 4.64045Q4.64697 4.61625 4.71416 4.5828Q4.78134 4.54935 4.8431 4.50774Q4.90486 4.46614 4.95918 4.41772Q5.0135 4.36931 5.05862 4.31567Q5.10373 4.26203 5.13817 4.20491L5.2331 4.04745Q5.26754 3.99033 5.29117 3.92793Q5.3148 3.86554 5.32684 3.79989Q5.33889 3.73425 5.33896 3.6675Q5.33903 3.60076 5.32713 3.53507Q5.31522 3.46939 5.29172 3.40692Q5.26823 3.34444 5.23391 3.2872Q5.19959 3.22997 5.15557 3.17983Q5.11154 3.1297 5.05924 3.0883L1.13217 -0.0203911Q1.08234 0.292441 1.00398 0.614682Q0.925623 0.936922 0.824032 1.24677Q0.722441 1.55662 0.604493 1.83312Q0.486545 2.10961 0.360219 2.33405C0.830029 1.49937 0.548327 2.79672 -0.0453553 4.12291Z" transform="translate(21.49225 28.76052)" id="Combined-Shape" fill="#DEE1E3" fill-opacity="0.4" fill-rule="evenodd" stroke="none" />
          <path d="M0 -1.22535e-07L0 10.5417L3.7467 10.7329L1.79151 0.919718L3.88578e-16 -1.22535e-07L0 -1.22535e-07Z" transform="translate(22.67951 11.05849)" id="Combined-Shape" fill="#C5C6CC" fill-rule="evenodd" stroke="none" />
          <path d="M3.33437 0.655678L3.33437 35.0553C3.33437 35.0553 1.519 35.0222 0.0529702 35.0222C0.0352221 35.0222 0.0175653 35.0217 0 35.0207C0.760402 33.8992 2.02584 31.4875 2.02584 28.44L2.02584 4.62487C2.02584 1.97874 0.822703 0.635989 0.339415 0C1.69161 0.228134 3.33437 0.655678 3.33437 0.655678L3.33437 35.0553C3.33437 35.0553 1.519 35.0222 0.0529702 35.0222C0.0352221 35.0222 0.0175653 35.0217 0 35.0207C0.760402 33.8992 2.02584 31.4875 2.02584 28.44L2.02584 4.62487C2.02584 1.97874 0.822703 0.635989 0.339415 0C1.69161 0.228134 3.33437 0.655678 3.33437 0.655678Z" transform="translate(19.57586 0.02290888)" id="Combined-Shape" fill="#DEE1E3" stroke="none" />
        </g>
      </g>
    </g>
  </g>
</svg>